<svg preserveAspectRatio="none" data-bbox="20 20 160.001 160" viewBox="20 20 160.001 160" height="20" fill = "black" width="20" xmlns="http://www.w3.org/2000/svg" data-type="shape" role="presentation" aria-hidden="true" aria-label="">
    <g>
        <path d="m110.518 100 67.301-67.302a7.385 7.385 0 0 0 2.181-5.26 7.385 7.385 0 0 0-2.177-5.257c-1.404-1.406-3.272-2.181-5.26-2.181s-3.856.775-5.259 2.179L100 89.482 32.698 22.181C31.294 20.775 29.426 20 27.438 20s-3.856.775-5.258 2.178a7.387 7.387 0 0 0-2.18 5.26c0 1.988.775 3.856 2.179 5.259L89.482 100 22.18 167.303a7.385 7.385 0 0 0-2.18 5.259c0 1.988.774 3.856 2.179 5.259 1.404 1.404 3.272 2.178 5.259 2.178s3.854-.774 5.259-2.178L100 110.519l67.304 67.303c1.404 1.404 3.272 2.178 5.259 2.178s3.854-.774 5.258-2.177a7.385 7.385 0 0 0 2.18-5.26 7.386 7.386 0 0 0-2.179-5.259L110.518 100z"></path>
    </g>
</svg>