<svg preserveAspectRatio="none" data-bbox="3.979 4.952 24.043 22.097" xmlns="http://www.w3.org/2000/svg" viewBox="3.979 4.952 24.043 22.097" height="15" width="16" fill="#2e4174" data-type="shape" role="presentation" aria-hidden="true" aria-label="">
    <g>
        <path d="M25.785 4.952H6.215a2.237 2.237 0 0 0-2.236 2.236v12.488a2.237 2.237 0 0 0 2.236 2.236h3.729l.001 5.137 5.704-5.137h10.137a2.236 2.236 0 0 0 2.236-2.236V7.188a2.237 2.237 0 0 0-2.237-2.236zM10 13.969a1 1 0 1 1 0-2 1 1 0 0 1 0 2zm4-.042a1 1 0 1 1 0-2 1 1 0 0 1 0 2zm4.02.021a1 1 0 1 1 0-2 1 1 0 0 1 0 2zm3.98.021a1 1 0 1 1 0-2 1 1 0 0 1 0 2z"></path>
    </g>
</svg>