<svg preserveAspectRatio="xMidYMid meet" data-bbox="19.999 19.938 160.002 160.063" viewBox="19.999 19.938 160.002 160.063" height="30" width="30" xmlns="http://www.w3.org/2000/svg" data-type="color" role="img" aria-label="Calender"><defs><style>#comp-lhujr9zu_r_comp-lg6e9o4s svg [data-color="1"] {fill: #FFFFFF;}</style></defs>
    <g>
        <path d="M176.19 169.841a3.81 3.81 0 0 1-3.81-3.81V42.857H27.619v123.175a3.81 3.81 0 1 1-7.62 0V39.048a3.81 3.81 0 0 1 3.81-3.81H176.19a3.81 3.81 0 0 1 3.81 3.81v126.984a3.809 3.809 0 0 1-3.81 3.809z" fill="#112F5B" data-color="1"></path>
        <path d="M176.19 78.413H23.81a3.81 3.81 0 1 1 0-7.62h152.38a3.81 3.81 0 1 1 0 7.62z" fill="#112F5B" data-color="1"></path>
        <path d="M100 58.095a3.81 3.81 0 0 1-3.81-3.81V23.81a3.81 3.81 0 1 1 7.62 0v30.476a3.81 3.81 0 0 1-3.81 3.809z" fill="#112F5B" data-color="1"></path>
        <path d="M74.603 58.095a3.81 3.81 0 0 1-3.81-3.81V23.81a3.81 3.81 0 1 1 7.62 0v30.476a3.81 3.81 0 0 1-3.81 3.809z" fill="#112F5B" data-color="1"></path>
        <path d="M125.396 58.095a3.81 3.81 0 0 1-3.81-3.81V23.81a3.81 3.81 0 1 1 7.619 0v30.476a3.808 3.808 0 0 1-3.809 3.809z" fill="#112F5B" data-color="1"></path>
        <path d="M49.206 58.095a3.81 3.81 0 0 1-3.81-3.81V23.81a3.81 3.81 0 1 1 7.62 0v30.476a3.81 3.81 0 0 1-3.81 3.809z" fill="#112F5B" data-color="1"></path>
        <path d="M150.794 58.095a3.81 3.81 0 0 1-3.81-3.81V23.81a3.81 3.81 0 1 1 7.62 0v30.476a3.81 3.81 0 0 1-3.81 3.809z" fill="#112F5B" data-color="1"></path>
        <path d="M33.968 180C26.266 180 20 173.734 20 166.032a3.81 3.81 0 1 1 7.62 0 6.356 6.356 0 0 0 6.349 6.349 3.81 3.81 0 1 1-.001 7.619z" fill="#112F5B" data-color="1"></path>
        <path d="M166.032 180a3.81 3.81 0 1 1 0-7.62 6.356 6.356 0 0 0 6.349-6.349 3.81 3.81 0 1 1 7.62 0C180 173.734 173.734 180 166.032 180z" fill="#112F5B" data-color="1"></path>
        <path d="M166.032 180H33.968a3.81 3.81 0 1 1 0-7.62h132.064a3.81 3.81 0 1 1 0 7.62z" fill="#112F5B" data-color="1"></path>
        <path d="M49.206 119.048a3.81 3.81 0 0 1-3.81-3.81V94.921a3.81 3.81 0 1 1 7.62 0v20.317a3.81 3.81 0 0 1-3.81 3.81z" fill="#112F5B" data-color="1"></path>
        <path d="M69.524 119.048a3.81 3.81 0 0 1-3.81-3.81V94.921a3.81 3.81 0 1 1 7.62 0v20.317a3.81 3.81 0 0 1-3.81 3.81z" fill="#112F5B" data-color="1"></path>
        <path d="M69.524 98.73H49.206a3.81 3.81 0 1 1 0-7.62h20.317a3.81 3.81 0 0 1 .001 7.62z" fill="#112F5B" data-color="1"></path>
        <path d="M69.524 119.048H49.206a3.81 3.81 0 1 1 0-7.62h20.317a3.81 3.81 0 0 1 .001 7.62z" fill="#112F5B" data-color="1"></path>
        <path d="M49.206 159.683a3.81 3.81 0 0 1-3.81-3.81v-20.317a3.81 3.81 0 1 1 7.62 0v20.317a3.81 3.81 0 0 1-3.81 3.81z" fill="#112F5B" data-color="1"></path>
        <path d="M69.524 159.683a3.81 3.81 0 0 1-3.81-3.81v-20.317a3.81 3.81 0 1 1 7.62 0v20.317a3.81 3.81 0 0 1-3.81 3.81z" fill="#112F5B" data-color="1"></path>
        <path d="M69.524 139.365H49.206a3.81 3.81 0 1 1 0-7.62h20.317a3.81 3.81 0 0 1 .001 7.62z" fill="#112F5B" data-color="1"></path>
        <path d="M69.524 159.683H49.206a3.81 3.81 0 1 1 0-7.62h20.317a3.81 3.81 0 0 1 .001 7.62z" fill="#112F5B" data-color="1"></path>
        <path d="M89.841 119.048a3.81 3.81 0 0 1-3.81-3.81V94.921a3.81 3.81 0 1 1 7.62 0v20.317a3.81 3.81 0 0 1-3.81 3.81z" fill="#112F5B" data-color="1"></path>
        <path d="M110.158 119.048a3.81 3.81 0 0 1-3.81-3.81V94.921a3.81 3.81 0 1 1 7.62 0v20.317a3.81 3.81 0 0 1-3.81 3.81z" fill="#112F5B" data-color="1"></path>
        <path d="M110.158 98.73H89.841a3.81 3.81 0 1 1 0-7.62h20.317a3.81 3.81 0 1 1 0 7.62z" fill="#112F5B" data-color="1"></path>
        <path d="M110.158 119.048H89.841a3.81 3.81 0 1 1 0-7.62h20.317a3.81 3.81 0 1 1 0 7.62z" fill="#112F5B" data-color="1"></path>
        <path d="M89.841 159.683a3.81 3.81 0 0 1-3.81-3.81v-20.317a3.81 3.81 0 1 1 7.62 0v20.317a3.81 3.81 0 0 1-3.81 3.81z" fill="#112F5B" data-color="1"></path>
        <path d="M110.158 159.683a3.81 3.81 0 0 1-3.81-3.81v-20.317a3.81 3.81 0 1 1 7.62 0v20.317a3.81 3.81 0 0 1-3.81 3.81z" fill="#112F5B" data-color="1"></path>
        <path d="M110.158 139.365H89.841a3.81 3.81 0 1 1 0-7.62h20.317a3.81 3.81 0 1 1 0 7.62z" fill="#112F5B" data-color="1"></path>
        <path d="M110.158 159.683H89.841a3.81 3.81 0 1 1 0-7.62h20.317a3.81 3.81 0 1 1 0 7.62z" fill="#112F5B" data-color="1"></path>
        <path d="M130.476 119.048a3.81 3.81 0 0 1-3.81-3.81V94.921a3.81 3.81 0 1 1 7.62 0v20.317a3.81 3.81 0 0 1-3.81 3.81z" fill="#112F5B" data-color="1"></path>
        <path d="M150.794 119.048a3.81 3.81 0 0 1-3.81-3.81V94.921a3.81 3.81 0 1 1 7.62 0v20.317a3.81 3.81 0 0 1-3.81 3.81z" fill="#112F5B" data-color="1"></path>
        <path d="M150.794 98.73h-20.317a3.81 3.81 0 1 1 0-7.62h20.317a3.81 3.81 0 1 1 0 7.62z" fill="#112F5B" data-color="1"></path>
        <path d="M150.794 119.048h-20.317a3.81 3.81 0 1 1 0-7.62h20.317a3.81 3.81 0 1 1 0 7.62z" fill="#112F5B" data-color="1"></path>
        <path d="M130.476 159.683a3.81 3.81 0 0 1-3.81-3.81v-20.317a3.81 3.81 0 1 1 7.62 0v20.317a3.81 3.81 0 0 1-3.81 3.81z" fill="#112F5B" data-color="1"></path>
        <path d="M150.794 159.683a3.81 3.81 0 0 1-3.81-3.81v-20.317a3.81 3.81 0 1 1 7.62 0v20.317a3.81 3.81 0 0 1-3.81 3.81z" fill="#112F5B" data-color="1"></path>
        <path d="M150.794 139.365h-20.317a3.81 3.81 0 1 1 0-7.62h20.317a3.81 3.81 0 1 1 0 7.62z" fill="#112F5B" data-color="1"></path>
        <path d="M150.794 159.683h-20.317a3.81 3.81 0 1 1 0-7.62h20.317a3.81 3.81 0 1 1 0 7.62z" fill="#112F5B" data-color="1"></path>
    </g>
</svg>